<mxfile host="app.diagrams.net" modified="2024-05-23T13:43:45.231Z" agent="Mozilla/5.0 (Windows NT 10.0; Win64; x64) AppleWebKit/537.36 (KHTML, like Gecko) Chrome/123.0.0.0 Safari/537.36 OPR/109.0.0.0" etag="tKwmPYxjgWl5_hD0wIJs" version="24.4.6" type="github">
  <diagram name="Página-1" id="8wJHhDrBqqvyORpSjcy0">
    <mxGraphModel dx="1393" dy="1927" grid="1" gridSize="10" guides="1" tooltips="1" connect="1" arrows="1" fold="1" page="1" pageScale="1" pageWidth="827" pageHeight="1169" math="0" shadow="0">
      <root>
        <mxCell id="0" />
        <mxCell id="1" parent="0" />
        <mxCell id="mMUvEe6XM5yxg4CJzl2s-44" style="edgeStyle=orthogonalEdgeStyle;rounded=0;orthogonalLoop=1;jettySize=auto;html=1;" parent="1" target="mMUvEe6XM5yxg4CJzl2s-43" edge="1">
          <mxGeometry relative="1" as="geometry">
            <mxPoint x="153" y="105" as="sourcePoint" />
          </mxGeometry>
        </mxCell>
        <mxCell id="mMUvEe6XM5yxg4CJzl2s-37" style="edgeStyle=orthogonalEdgeStyle;rounded=0;orthogonalLoop=1;jettySize=auto;html=1;" parent="1" target="mMUvEe6XM5yxg4CJzl2s-6" edge="1">
          <mxGeometry relative="1" as="geometry">
            <mxPoint x="303" y="150" as="sourcePoint" />
          </mxGeometry>
        </mxCell>
        <mxCell id="mMUvEe6XM5yxg4CJzl2s-63" value="Não" style="edgeLabel;html=1;align=center;verticalAlign=middle;resizable=0;points=[];" parent="mMUvEe6XM5yxg4CJzl2s-37" vertex="1" connectable="0">
          <mxGeometry x="0.0992" y="-2" relative="1" as="geometry">
            <mxPoint as="offset" />
          </mxGeometry>
        </mxCell>
        <mxCell id="F-MxxqmCizXCxpgljGNL-18" style="edgeStyle=orthogonalEdgeStyle;rounded=0;orthogonalLoop=1;jettySize=auto;html=1;" edge="1" parent="1" source="mMUvEe6XM5yxg4CJzl2s-6">
          <mxGeometry relative="1" as="geometry">
            <mxPoint x="610" y="225" as="targetPoint" />
          </mxGeometry>
        </mxCell>
        <mxCell id="F-MxxqmCizXCxpgljGNL-19" value="Sim" style="edgeLabel;html=1;align=center;verticalAlign=middle;resizable=0;points=[];" vertex="1" connectable="0" parent="F-MxxqmCizXCxpgljGNL-18">
          <mxGeometry x="-0.1838" y="3" relative="1" as="geometry">
            <mxPoint as="offset" />
          </mxGeometry>
        </mxCell>
        <mxCell id="mMUvEe6XM5yxg4CJzl2s-6" value="Realizar o Cadastro" style="rounded=0;whiteSpace=wrap;html=1;" parent="1" vertex="1">
          <mxGeometry x="243" y="195" width="120" height="60" as="geometry" />
        </mxCell>
        <mxCell id="F-MxxqmCizXCxpgljGNL-4" style="edgeStyle=orthogonalEdgeStyle;rounded=0;orthogonalLoop=1;jettySize=auto;html=1;" edge="1" parent="1" source="mMUvEe6XM5yxg4CJzl2s-7">
          <mxGeometry relative="1" as="geometry">
            <mxPoint x="613" y="105" as="targetPoint" />
          </mxGeometry>
        </mxCell>
        <mxCell id="F-MxxqmCizXCxpgljGNL-14" value="Sim" style="edgeLabel;html=1;align=center;verticalAlign=middle;resizable=0;points=[];" vertex="1" connectable="0" parent="F-MxxqmCizXCxpgljGNL-4">
          <mxGeometry x="-0.1773" y="1" relative="1" as="geometry">
            <mxPoint as="offset" />
          </mxGeometry>
        </mxCell>
        <mxCell id="mMUvEe6XM5yxg4CJzl2s-7" value="Fazer o Login" style="rounded=0;whiteSpace=wrap;html=1;" parent="1" vertex="1">
          <mxGeometry x="423" y="75" width="120" height="60" as="geometry" />
        </mxCell>
        <mxCell id="mMUvEe6XM5yxg4CJzl2s-33" style="edgeStyle=orthogonalEdgeStyle;rounded=0;orthogonalLoop=1;jettySize=auto;html=1;" parent="1" source="mMUvEe6XM5yxg4CJzl2s-8" target="mMUvEe6XM5yxg4CJzl2s-16" edge="1">
          <mxGeometry relative="1" as="geometry" />
        </mxCell>
        <mxCell id="mMUvEe6XM5yxg4CJzl2s-8" value="Tela Inicial" style="rounded=0;whiteSpace=wrap;html=1;" parent="1" vertex="1">
          <mxGeometry x="683" y="125" width="120" height="60" as="geometry" />
        </mxCell>
        <mxCell id="mMUvEe6XM5yxg4CJzl2s-40" style="edgeStyle=orthogonalEdgeStyle;rounded=0;orthogonalLoop=1;jettySize=auto;html=1;entryX=0.5;entryY=0;entryDx=0;entryDy=0;" parent="1" source="mMUvEe6XM5yxg4CJzl2s-16" target="mMUvEe6XM5yxg4CJzl2s-34" edge="1">
          <mxGeometry relative="1" as="geometry" />
        </mxCell>
        <mxCell id="mMUvEe6XM5yxg4CJzl2s-16" value="Aba Ajustes" style="rounded=0;whiteSpace=wrap;html=1;" parent="1" vertex="1">
          <mxGeometry x="683" y="245" width="120" height="60" as="geometry" />
        </mxCell>
        <mxCell id="mMUvEe6XM5yxg4CJzl2s-65" style="edgeStyle=orthogonalEdgeStyle;rounded=0;orthogonalLoop=1;jettySize=auto;html=1;entryX=1;entryY=0.5;entryDx=0;entryDy=0;" parent="1" source="mMUvEe6XM5yxg4CJzl2s-34" target="mMUvEe6XM5yxg4CJzl2s-64" edge="1">
          <mxGeometry relative="1" as="geometry" />
        </mxCell>
        <mxCell id="mMUvEe6XM5yxg4CJzl2s-34" value="Entrada e Audio" style="rounded=0;whiteSpace=wrap;html=1;" parent="1" vertex="1">
          <mxGeometry x="683" y="355" width="120" height="60" as="geometry" />
        </mxCell>
        <mxCell id="mMUvEe6XM5yxg4CJzl2s-45" value="" style="edgeStyle=orthogonalEdgeStyle;rounded=0;orthogonalLoop=1;jettySize=auto;html=1;" parent="1" source="mMUvEe6XM5yxg4CJzl2s-43" target="mMUvEe6XM5yxg4CJzl2s-7" edge="1">
          <mxGeometry relative="1" as="geometry" />
        </mxCell>
        <mxCell id="mMUvEe6XM5yxg4CJzl2s-62" value="Sim" style="edgeLabel;html=1;align=center;verticalAlign=middle;resizable=0;points=[];" parent="mMUvEe6XM5yxg4CJzl2s-45" vertex="1" connectable="0">
          <mxGeometry x="-0.2308" y="4" relative="1" as="geometry">
            <mxPoint as="offset" />
          </mxGeometry>
        </mxCell>
        <mxCell id="mMUvEe6XM5yxg4CJzl2s-43" value="Usuario cadastrado?" style="rhombus;whiteSpace=wrap;html=1;" parent="1" vertex="1">
          <mxGeometry x="248" y="55" width="110" height="100" as="geometry" />
        </mxCell>
        <mxCell id="mMUvEe6XM5yxg4CJzl2s-64" value="Redefinir Volume" style="rounded=0;whiteSpace=wrap;html=1;" parent="1" vertex="1">
          <mxGeometry x="483" y="355" width="120" height="60" as="geometry" />
        </mxCell>
        <mxCell id="F-MxxqmCizXCxpgljGNL-1" value="Usuário acessou o sistema" style="rounded=0;whiteSpace=wrap;html=1;" vertex="1" parent="1">
          <mxGeometry x="63" y="75" width="120" height="60" as="geometry" />
        </mxCell>
        <mxCell id="F-MxxqmCizXCxpgljGNL-3" value="" style="shape=link;html=1;rounded=0;" edge="1" parent="1">
          <mxGeometry width="100" relative="1" as="geometry">
            <mxPoint x="613" y="105" as="sourcePoint" />
            <mxPoint x="613" y="225" as="targetPoint" />
          </mxGeometry>
        </mxCell>
        <mxCell id="F-MxxqmCizXCxpgljGNL-6" value="" style="endArrow=classic;html=1;rounded=0;entryX=-0.033;entryY=0.633;entryDx=0;entryDy=0;entryPerimeter=0;" edge="1" parent="1" target="mMUvEe6XM5yxg4CJzl2s-8">
          <mxGeometry width="50" height="50" relative="1" as="geometry">
            <mxPoint x="613" y="165" as="sourcePoint" />
            <mxPoint x="673" y="165" as="targetPoint" />
          </mxGeometry>
        </mxCell>
        <mxCell id="F-MxxqmCizXCxpgljGNL-11" style="edgeStyle=orthogonalEdgeStyle;rounded=0;orthogonalLoop=1;jettySize=auto;html=1;" edge="1" parent="1" source="F-MxxqmCizXCxpgljGNL-7">
          <mxGeometry relative="1" as="geometry">
            <mxPoint x="368" y="475" as="targetPoint" />
          </mxGeometry>
        </mxCell>
        <mxCell id="F-MxxqmCizXCxpgljGNL-21" value="Não" style="edgeLabel;html=1;align=center;verticalAlign=middle;resizable=0;points=[];" vertex="1" connectable="0" parent="F-MxxqmCizXCxpgljGNL-11">
          <mxGeometry x="-0.21" y="4" relative="1" as="geometry">
            <mxPoint x="-9" as="offset" />
          </mxGeometry>
        </mxCell>
        <mxCell id="F-MxxqmCizXCxpgljGNL-13" style="edgeStyle=orthogonalEdgeStyle;rounded=0;orthogonalLoop=1;jettySize=auto;html=1;entryX=1;entryY=0.5;entryDx=0;entryDy=0;" edge="1" parent="1" source="F-MxxqmCizXCxpgljGNL-7" target="F-MxxqmCizXCxpgljGNL-12">
          <mxGeometry relative="1" as="geometry" />
        </mxCell>
        <mxCell id="F-MxxqmCizXCxpgljGNL-20" value="Sim" style="edgeLabel;html=1;align=center;verticalAlign=middle;resizable=0;points=[];" vertex="1" connectable="0" parent="F-MxxqmCizXCxpgljGNL-13">
          <mxGeometry x="-0.4" y="-2" relative="1" as="geometry">
            <mxPoint x="-12" y="2" as="offset" />
          </mxGeometry>
        </mxCell>
        <mxCell id="F-MxxqmCizXCxpgljGNL-7" value="Volume foi redefinido?" style="rhombus;whiteSpace=wrap;html=1;" vertex="1" parent="1">
          <mxGeometry x="313" y="335" width="110" height="100" as="geometry" />
        </mxCell>
        <mxCell id="F-MxxqmCizXCxpgljGNL-8" style="edgeStyle=orthogonalEdgeStyle;rounded=0;orthogonalLoop=1;jettySize=auto;html=1;entryX=1.073;entryY=0.5;entryDx=0;entryDy=0;entryPerimeter=0;" edge="1" parent="1" source="mMUvEe6XM5yxg4CJzl2s-64" target="F-MxxqmCizXCxpgljGNL-7">
          <mxGeometry relative="1" as="geometry" />
        </mxCell>
        <mxCell id="F-MxxqmCizXCxpgljGNL-10" style="edgeStyle=orthogonalEdgeStyle;rounded=0;orthogonalLoop=1;jettySize=auto;html=1;entryX=0.5;entryY=1;entryDx=0;entryDy=0;" edge="1" parent="1" source="F-MxxqmCizXCxpgljGNL-9" target="mMUvEe6XM5yxg4CJzl2s-64">
          <mxGeometry relative="1" as="geometry" />
        </mxCell>
        <mxCell id="F-MxxqmCizXCxpgljGNL-9" value="Enviar Alerta" style="rounded=0;whiteSpace=wrap;html=1;" vertex="1" parent="1">
          <mxGeometry x="313" y="485" width="120" height="60" as="geometry" />
        </mxCell>
        <mxCell id="F-MxxqmCizXCxpgljGNL-25" style="edgeStyle=orthogonalEdgeStyle;rounded=0;orthogonalLoop=1;jettySize=auto;html=1;" edge="1" parent="1" source="F-MxxqmCizXCxpgljGNL-12" target="F-MxxqmCizXCxpgljGNL-24">
          <mxGeometry relative="1" as="geometry" />
        </mxCell>
        <mxCell id="F-MxxqmCizXCxpgljGNL-12" value="Volume Redefinido" style="rounded=0;whiteSpace=wrap;html=1;" vertex="1" parent="1">
          <mxGeometry x="123" y="355" width="120" height="60" as="geometry" />
        </mxCell>
        <mxCell id="F-MxxqmCizXCxpgljGNL-22" value="" style="ellipse;html=1;shape=startState;fillColor=#000000;strokeColor=#ff0000;" vertex="1" parent="1">
          <mxGeometry x="108" y="-15" width="30" height="30" as="geometry" />
        </mxCell>
        <mxCell id="F-MxxqmCizXCxpgljGNL-23" value="" style="edgeStyle=orthogonalEdgeStyle;html=1;verticalAlign=bottom;endArrow=open;endSize=8;strokeColor=#ff0000;rounded=0;" edge="1" source="F-MxxqmCizXCxpgljGNL-22" parent="1">
          <mxGeometry relative="1" as="geometry">
            <mxPoint x="123" y="75" as="targetPoint" />
          </mxGeometry>
        </mxCell>
        <mxCell id="F-MxxqmCizXCxpgljGNL-24" value="" style="ellipse;html=1;shape=endState;fillColor=#000000;strokeColor=#ff0000;" vertex="1" parent="1">
          <mxGeometry x="40" y="370" width="30" height="30" as="geometry" />
        </mxCell>
      </root>
    </mxGraphModel>
  </diagram>
</mxfile>
